<svg width="18" height="18" viewBox="0 0 18 18" fill="none" xmlns="http://www.w3.org/2000/svg">
<path fill-rule="evenodd" clip-rule="evenodd" d="M7.45802 2.4375H10.542C11.9205 2.4375 13.0125 2.4375 13.8668 2.55225C14.7458 2.67075 15.4575 2.91975 16.0193 3.48075C16.5803 4.0425 16.8293 4.75425 16.9478 5.63325C17.0153 6.138 17.043 6.72525 17.0543 7.4055C17.0641 7.46251 17.0651 7.52068 17.0573 7.578C17.0625 8.0025 17.0625 8.4615 17.0625 8.958V9.042C17.0625 10.4205 17.0625 11.5125 16.9478 12.3668C16.8293 13.2458 16.5803 13.9575 16.0193 14.5192C15.4575 15.0802 14.7458 15.3293 13.8668 15.4478C13.0118 15.5625 11.9205 15.5625 10.542 15.5625H7.45802C6.07952 15.5625 4.98752 15.5625 4.13327 15.4478C3.25427 15.3293 2.54252 15.0802 1.98077 14.5192C1.41977 13.9575 1.17077 13.2458 1.05227 12.3668C0.937519 11.5118 0.937519 10.4205 0.937519 9.042V8.958C0.937519 8.4615 0.937519 8.0025 0.942769 7.578C0.934728 7.52072 0.935487 7.46255 0.945019 7.4055C0.957019 6.72525 0.984769 6.138 1.05227 5.63325C1.17077 4.75425 1.41977 4.0425 1.98077 3.48075C2.54252 2.91975 3.25427 2.67075 4.13327 2.55225C4.98827 2.4375 6.07952 2.4375 7.45802 2.4375ZM2.06402 8.0625C2.06252 8.3535 2.06252 8.6655 2.06252 9C2.06252 10.4303 2.06402 11.4465 2.16752 12.2175C2.26877 12.9713 2.45927 13.4062 2.77652 13.7235C3.09377 14.0408 3.52877 14.2313 4.28327 14.3325C5.05427 14.436 6.06977 14.4375 7.50002 14.4375H10.5C11.9303 14.4375 12.9465 14.436 13.7175 14.3325C14.4713 14.2313 14.9063 14.0408 15.2235 13.7235C15.5408 13.4062 15.7313 12.9712 15.8325 12.2167C15.936 11.4457 15.9375 10.4303 15.9375 9C15.9375 8.6655 15.9375 8.3535 15.936 8.0625H2.06402ZM15.918 6.9375H2.08202C2.09702 6.49725 2.12252 6.117 2.16752 5.7825C2.26877 5.02875 2.45927 4.59375 2.77652 4.2765C3.09377 3.95925 3.52877 3.76875 4.28327 3.6675C5.05427 3.564 6.06977 3.5625 7.50002 3.5625H10.5C11.9303 3.5625 12.9465 3.564 13.7175 3.6675C14.4713 3.76875 14.9063 3.95925 15.2235 4.2765C15.5408 4.59375 15.7313 5.02875 15.8325 5.78325C15.8775 6.117 15.903 6.49725 15.918 6.9375ZM3.93752 12C3.93752 11.8508 3.99678 11.7077 4.10227 11.6023C4.20776 11.4968 4.35084 11.4375 4.50002 11.4375H7.50002C7.6492 11.4375 7.79228 11.4968 7.89777 11.6023C8.00326 11.7077 8.06252 11.8508 8.06252 12C8.06252 12.1492 8.00326 12.2923 7.89777 12.3977C7.79228 12.5032 7.6492 12.5625 7.50002 12.5625H4.50002C4.35084 12.5625 4.20776 12.5032 4.10227 12.3977C3.99678 12.2923 3.93752 12.1492 3.93752 12ZM8.81252 12C8.81252 11.8508 8.87178 11.7077 8.97727 11.6023C9.08276 11.4968 9.22583 11.4375 9.37502 11.4375H10.5C10.6492 11.4375 10.7923 11.4968 10.8978 11.6023C11.0033 11.7077 11.0625 11.8508 11.0625 12C11.0625 12.1492 11.0033 12.2923 10.8978 12.3977C10.7923 12.5032 10.6492 12.5625 10.5 12.5625H9.37502C9.22583 12.5625 9.08276 12.5032 8.97727 12.3977C8.87178 12.2923 8.81252 12.1492 8.81252 12Z" fill="#E4E4E4"/>
</svg>
